<mxfile host="app.diagrams.net" modified="2023-08-25T16:12:45.290Z" agent="Mozilla/5.0 (Windows NT 10.0; Win64; x64) AppleWebKit/537.36 (KHTML, like Gecko) Chrome/116.0.0.0 Safari/537.36" etag="ISbagx1NMqPkvdpYiE8q" version="21.6.9" type="device">
  <diagram name="Page-1" id="e7e014a7-5840-1c2e-5031-d8a46d1fe8dd">
    <mxGraphModel dx="1434" dy="790" grid="1" gridSize="10" guides="1" tooltips="1" connect="1" arrows="1" fold="1" page="1" pageScale="1" pageWidth="1169" pageHeight="826" background="none" math="0" shadow="0">
      <root>
        <mxCell id="0" />
        <mxCell id="1" parent="0" />
        <mxCell id="2" value="Thread 1" style="swimlane;whiteSpace=wrap" parent="1" vertex="1">
          <mxGeometry x="164.5" y="128" width="280" height="570" as="geometry" />
        </mxCell>
        <mxCell id="5" value="" style="ellipse;shape=startState;fillColor=#000000;strokeColor=#ff0000;" parent="2" vertex="1">
          <mxGeometry x="100" y="40" width="30" height="30" as="geometry" />
        </mxCell>
        <mxCell id="6" value="" style="edgeStyle=elbowEdgeStyle;elbow=horizontal;verticalAlign=bottom;endArrow=open;endSize=8;strokeColor=#FF0000;endFill=1;rounded=0" parent="2" source="5" target="7" edge="1">
          <mxGeometry x="100" y="40" as="geometry">
            <mxPoint x="115" y="110" as="targetPoint" />
          </mxGeometry>
        </mxCell>
        <mxCell id="7" value="idle" style="" parent="2" vertex="1">
          <mxGeometry x="60" y="110" width="110" height="50" as="geometry" />
        </mxCell>
        <mxCell id="8" value="user action" style="" parent="2" vertex="1">
          <mxGeometry x="60" y="220" width="110" height="50" as="geometry" />
        </mxCell>
        <mxCell id="9" value="" style="endArrow=open;strokeColor=#FF0000;endFill=1;rounded=0" parent="2" source="7" target="8" edge="1">
          <mxGeometry relative="1" as="geometry" />
        </mxCell>
        <mxCell id="10" value="post command" style="" parent="2" vertex="1">
          <mxGeometry x="60" y="325" width="110" height="50" as="geometry" />
        </mxCell>
        <mxCell id="11" value="" style="endArrow=open;strokeColor=#FF0000;endFill=1;rounded=0" parent="2" source="8" target="10" edge="1">
          <mxGeometry relative="1" as="geometry" />
        </mxCell>
        <mxCell id="12" value="" style="edgeStyle=elbowEdgeStyle;elbow=horizontal;strokeColor=#FF0000;endArrow=open;endFill=1;rounded=0" parent="2" source="10" target="7" edge="1">
          <mxGeometry width="100" height="100" relative="1" as="geometry">
            <mxPoint x="160" y="290" as="sourcePoint" />
            <mxPoint x="260" y="190" as="targetPoint" />
            <Array as="points">
              <mxPoint x="30" y="250" />
            </Array>
          </mxGeometry>
        </mxCell>
        <mxCell id="3" value="Thread 2" style="swimlane;whiteSpace=wrap" parent="1" vertex="1">
          <mxGeometry x="444.5" y="128" width="280" height="570" as="geometry" />
        </mxCell>
        <mxCell id="13" value="" style="ellipse;shape=startState;fillColor=#000000;strokeColor=#ff0000;" parent="3" vertex="1">
          <mxGeometry x="60" y="40" width="30" height="30" as="geometry" />
        </mxCell>
        <mxCell id="14" value="" style="edgeStyle=elbowEdgeStyle;elbow=horizontal;verticalAlign=bottom;endArrow=open;endSize=8;strokeColor=#FF0000;endFill=1;rounded=0" parent="3" source="13" target="15" edge="1">
          <mxGeometry x="40" y="20" as="geometry">
            <mxPoint x="55" y="90" as="targetPoint" />
          </mxGeometry>
        </mxCell>
        <mxCell id="15" value="idle" style="" parent="3" vertex="1">
          <mxGeometry x="20" y="110" width="110" height="50" as="geometry" />
        </mxCell>
        <mxCell id="16" value="check for &#xa;new commands" style="" parent="3" vertex="1">
          <mxGeometry x="20" y="220" width="110" height="50" as="geometry" />
        </mxCell>
        <mxCell id="17" value="" style="endArrow=open;strokeColor=#FF0000;endFill=1;rounded=0" parent="3" source="15" target="16" edge="1">
          <mxGeometry relative="1" as="geometry" />
        </mxCell>
        <mxCell id="18" value="command queue" style="" parent="3" vertex="1">
          <mxGeometry x="20" y="325" width="110" height="50" as="geometry" />
        </mxCell>
        <mxCell id="19" value="" style="endArrow=open;strokeColor=#FF0000;endFill=1;rounded=0" parent="3" source="16" target="18" edge="1">
          <mxGeometry relative="1" as="geometry" />
        </mxCell>
        <mxCell id="21" value="queue empty" style="rhombus;fillColor=#ffffc0;strokeColor=#ff0000;" parent="3" vertex="1">
          <mxGeometry x="150" y="225" width="80" height="40" as="geometry" />
        </mxCell>
        <mxCell id="22" value="yes" style="edgeStyle=elbowEdgeStyle;elbow=horizontal;align=left;verticalAlign=bottom;endArrow=open;endSize=8;strokeColor=#FF0000;exitX=0.5;exitY=0;endFill=1;rounded=0;entryX=0.75;entryY=0.5;entryPerimeter=0" parent="3" source="21" target="25" edge="1">
          <mxGeometry x="-1" relative="1" as="geometry">
            <mxPoint x="160" y="150" as="targetPoint" />
            <Array as="points">
              <mxPoint x="190" y="180" />
            </Array>
          </mxGeometry>
        </mxCell>
        <mxCell id="23" value="no" style="edgeStyle=elbowEdgeStyle;elbow=horizontal;align=left;verticalAlign=top;endArrow=open;endSize=8;strokeColor=#FF0000;endFill=1;rounded=0" parent="3" source="21" target="30" edge="1">
          <mxGeometry x="-1" relative="1" as="geometry">
            <mxPoint x="190" y="305" as="targetPoint" />
          </mxGeometry>
        </mxCell>
        <mxCell id="24" value="" style="endArrow=open;strokeColor=#FF0000;endFill=1;rounded=0" parent="3" source="16" target="21" edge="1">
          <mxGeometry relative="1" as="geometry" />
        </mxCell>
        <mxCell id="25" value="" style="shape=line;strokeWidth=6;strokeColor=#ff0000;rotation=90" parent="3" vertex="1">
          <mxGeometry x="130" y="127.5" width="50" height="15" as="geometry" />
        </mxCell>
        <mxCell id="26" value="" style="edgeStyle=elbowEdgeStyle;elbow=horizontal;verticalAlign=bottom;endArrow=open;endSize=8;strokeColor=#FF0000;endFill=1;rounded=0" parent="3" source="25" target="15" edge="1">
          <mxGeometry x="130" y="90" as="geometry">
            <mxPoint x="230" y="140" as="targetPoint" />
          </mxGeometry>
        </mxCell>
        <mxCell id="30" value="dispatch&#xa;command&#xa;worker thread" style="" parent="3" vertex="1">
          <mxGeometry x="140" y="325" width="110" height="50" as="geometry" />
        </mxCell>
        <mxCell id="31" value="critical&#xa;section" style="shape=note;whiteSpace=wrap;size=17" parent="3" vertex="1">
          <mxGeometry x="105" y="490" width="100" height="50" as="geometry" />
        </mxCell>
        <mxCell id="32" value="" style="endArrow=none;strokeColor=#FF0000;endFill=0;rounded=0;dashed=1" parent="3" source="18" target="31" edge="1">
          <mxGeometry relative="1" as="geometry" />
        </mxCell>
        <mxCell id="34" value="" style="whiteSpace=wrap;strokeColor=#FF0000;fillColor=#FF0000" parent="3" vertex="1">
          <mxGeometry x="245" y="395" width="5" height="45" as="geometry" />
        </mxCell>
        <mxCell id="41" value="" style="edgeStyle=elbowEdgeStyle;elbow=horizontal;entryX=0;entryY=0.5;strokeColor=#FF0000;endArrow=open;endFill=1;rounded=0" parent="3" source="30" target="34" edge="1">
          <mxGeometry width="100" height="100" relative="1" as="geometry">
            <mxPoint x="60" y="480" as="sourcePoint" />
            <mxPoint x="160" y="380" as="targetPoint" />
            <Array as="points">
              <mxPoint x="195" y="400" />
            </Array>
          </mxGeometry>
        </mxCell>
        <mxCell id="8rR3oontzNPSZFbkgb1i-41" style="edgeStyle=orthogonalEdgeStyle;rounded=0;orthogonalLoop=1;jettySize=auto;html=1;exitX=0;exitY=0;exitDx=0;exitDy=0;entryX=0;entryY=0.5;entryDx=0;entryDy=0;" edge="1" parent="3" source="13" target="13">
          <mxGeometry relative="1" as="geometry" />
        </mxCell>
        <mxCell id="4" value="Thread 3" style="swimlane;whiteSpace=wrap" parent="1" vertex="1">
          <mxGeometry x="724.5" y="128" width="280" height="570" as="geometry" />
        </mxCell>
        <mxCell id="33" value="process&#xa;command" style="" parent="4" vertex="1">
          <mxGeometry x="90" y="405" width="110" height="50" as="geometry" />
        </mxCell>
        <mxCell id="35" value="" style="edgeStyle=elbowEdgeStyle;elbow=horizontal;strokeColor=#FF0000;endArrow=open;endFill=1;rounded=0;entryX=0.25;entryY=0.5;entryPerimeter=0" parent="4" target="25" edge="1">
          <mxGeometry width="100" height="100" relative="1" as="geometry">
            <mxPoint x="-30" y="410" as="sourcePoint" />
            <mxPoint x="-120" y="120" as="targetPoint" />
            <Array as="points">
              <mxPoint x="-10" y="135" />
            </Array>
          </mxGeometry>
        </mxCell>
        <mxCell id="37" value="" style="edgeStyle=none;strokeColor=#FF0000;endArrow=open;endFill=1;rounded=0" parent="4" target="33" edge="1">
          <mxGeometry width="100" height="100" relative="1" as="geometry">
            <mxPoint x="-30" y="429.5" as="sourcePoint" />
            <mxPoint x="90" y="429.5" as="targetPoint" />
          </mxGeometry>
        </mxCell>
        <mxCell id="38" value="" style="ellipse;shape=endState;fillColor=#000000;strokeColor=#ff0000" parent="4" vertex="1">
          <mxGeometry x="130" y="500" width="30" height="30" as="geometry" />
        </mxCell>
        <mxCell id="39" value="" style="endArrow=open;strokeColor=#FF0000;endFill=1;rounded=0" parent="4" source="33" target="38" edge="1">
          <mxGeometry relative="1" as="geometry" />
        </mxCell>
        <mxCell id="20" value="" style="endArrow=open;strokeColor=#FF0000;endFill=1;rounded=0" parent="1" source="10" target="18" edge="1">
          <mxGeometry relative="1" as="geometry" />
        </mxCell>
        <mxCell id="8rR3oontzNPSZFbkgb1i-44" value="&lt;br&gt;&lt;pre style=&quot;unicode-bidi: isolate; font-size: 28px; line-height: 36px; background-color: rgb(248, 249, 250); border: none; padding: 2px 0.14em 2px 0px; position: relative; margin: -2px 0px; resize: none; font-family: inherit; overflow: hidden; width: 270px; overflow-wrap: break-word; color: rgb(32, 33, 36); font-style: normal; font-variant-ligatures: normal; font-variant-caps: normal; font-weight: 400; letter-spacing: normal; orphans: 2; text-indent: 0px; text-transform: none; widows: 2; word-spacing: 0px; -webkit-text-stroke-width: 0px; text-decoration-thickness: initial; text-decoration-style: initial; text-decoration-color: initial;&quot; dir=&quot;ltr&quot; id=&quot;tw-target-text&quot; data-placeholder=&quot;Перевод&quot; class=&quot;tw-data-text tw-text-large tw-ta&quot;&gt;&lt;span lang=&quot;en&quot; class=&quot;Y2IQFc&quot;&gt;Active Chart&lt;/span&gt;&lt;/pre&gt;&lt;pre style=&quot;unicode-bidi: isolate; font-size: 28px; line-height: 36px; background-color: rgb(248, 249, 250); border: none; padding: 2px 0.14em 2px 0px; position: relative; margin: -2px 0px; resize: none; font-family: inherit; overflow: hidden; width: 270px; overflow-wrap: break-word; color: rgb(32, 33, 36); font-style: normal; font-variant-ligatures: normal; font-variant-caps: normal; font-weight: 400; letter-spacing: normal; orphans: 2; text-indent: 0px; text-transform: none; widows: 2; word-spacing: 0px; -webkit-text-stroke-width: 0px; text-decoration-thickness: initial; text-decoration-style: initial; text-decoration-color: initial;&quot; dir=&quot;ltr&quot; id=&quot;tw-target-text&quot; data-placeholder=&quot;Перевод&quot; class=&quot;tw-data-text tw-text-large tw-ta&quot;&gt;&lt;span lang=&quot;en&quot; class=&quot;Y2IQFc&quot;&gt;Покупка газеты в газетном киоске&lt;/span&gt;&lt;/pre&gt;" style="text;align=center;fontStyle=1;verticalAlign=middle;spacingLeft=3;spacingRight=3;strokeColor=none;rotatable=0;points=[[0,0.5],[1,0.5]];portConstraint=eastwest;html=1;" vertex="1" parent="1">
          <mxGeometry x="330" y="870" width="560" height="60" as="geometry" />
        </mxCell>
        <mxCell id="8rR3oontzNPSZFbkgb1i-59" value="" style="edgeStyle=orthogonalEdgeStyle;rounded=0;orthogonalLoop=1;jettySize=auto;html=1;" edge="1" parent="1" source="8rR3oontzNPSZFbkgb1i-49" target="8rR3oontzNPSZFbkgb1i-50">
          <mxGeometry relative="1" as="geometry" />
        </mxCell>
        <mxCell id="8rR3oontzNPSZFbkgb1i-49" value="Купить газету" style="html=1;whiteSpace=wrap;fontStyle=1;fontSize=15;" vertex="1" parent="1">
          <mxGeometry x="130" y="1040" width="110" height="50" as="geometry" />
        </mxCell>
        <mxCell id="8rR3oontzNPSZFbkgb1i-50" value="" style="rhombus;whiteSpace=wrap;html=1;fontColor=#000000;fillColor=#ffffc0;strokeColor=#ff0000;" vertex="1" parent="1">
          <mxGeometry x="90" y="1120" width="190" height="150" as="geometry" />
        </mxCell>
        <mxCell id="8rR3oontzNPSZFbkgb1i-51" value="Плохая погода" style="html=1;align=left;verticalAlign=bottom;endArrow=open;endSize=8;strokeColor=#ff0000;rounded=0;fontStyle=1;fontSize=13;" edge="1" source="8rR3oontzNPSZFbkgb1i-50" parent="1">
          <mxGeometry x="-0.7543" y="13" relative="1" as="geometry">
            <mxPoint x="460" y="1195" as="targetPoint" />
            <mxPoint as="offset" />
          </mxGeometry>
        </mxCell>
        <mxCell id="8rR3oontzNPSZFbkgb1i-52" value="Хорошая погода" style="html=1;align=left;verticalAlign=top;endArrow=open;endSize=8;strokeColor=#ff0000;rounded=0;horizontal=0;fontStyle=1;fontSize=13;entryX=0.5;entryY=0;entryDx=0;entryDy=0;" edge="1" source="8rR3oontzNPSZFbkgb1i-50" parent="1" target="8rR3oontzNPSZFbkgb1i-62">
          <mxGeometry x="0.5353" y="11" relative="1" as="geometry">
            <mxPoint x="190" y="1440" as="targetPoint" />
            <mxPoint as="offset" />
          </mxGeometry>
        </mxCell>
        <mxCell id="8rR3oontzNPSZFbkgb1i-53" value="Какая погода на улице" style="edgeLabel;html=1;align=left;verticalAlign=middle;resizable=0;points=[];fontStyle=1;fontSize=15;" vertex="1" connectable="0" parent="8rR3oontzNPSZFbkgb1i-52">
          <mxGeometry x="-1" y="-24" relative="1" as="geometry">
            <mxPoint x="-59" y="-73" as="offset" />
          </mxGeometry>
        </mxCell>
        <mxCell id="8rR3oontzNPSZFbkgb1i-57" value="" style="ellipse;html=1;shape=startState;fillColor=#000000;strokeColor=#ff0000;" vertex="1" parent="1">
          <mxGeometry x="170" y="950" width="30" height="30" as="geometry" />
        </mxCell>
        <mxCell id="8rR3oontzNPSZFbkgb1i-58" value="" style="edgeStyle=orthogonalEdgeStyle;html=1;verticalAlign=bottom;endArrow=open;endSize=8;strokeColor=#ff0000;rounded=0;" edge="1" source="8rR3oontzNPSZFbkgb1i-57" parent="1">
          <mxGeometry relative="1" as="geometry">
            <mxPoint x="185" y="1040" as="targetPoint" />
          </mxGeometry>
        </mxCell>
        <mxCell id="8rR3oontzNPSZFbkgb1i-61" value="" style="ellipse;html=1;shape=endState;fillColor=#000000;strokeColor=#ff0000;" vertex="1" parent="1">
          <mxGeometry x="465" y="1180" width="30" height="30" as="geometry" />
        </mxCell>
        <mxCell id="8rR3oontzNPSZFbkgb1i-66" value="" style="rounded=0;orthogonalLoop=1;jettySize=auto;html=1;" edge="1" parent="1" source="8rR3oontzNPSZFbkgb1i-62" target="8rR3oontzNPSZFbkgb1i-63">
          <mxGeometry relative="1" as="geometry" />
        </mxCell>
        <mxCell id="8rR3oontzNPSZFbkgb1i-62" value="Подошли к киоску" style="html=1;whiteSpace=wrap;fontStyle=1;fontSize=15;" vertex="1" parent="1">
          <mxGeometry x="60" y="1450" width="250" height="50" as="geometry" />
        </mxCell>
        <mxCell id="8rR3oontzNPSZFbkgb1i-63" value="Выбираем газету" style="rhombus;whiteSpace=wrap;html=1;fontColor=#000000;fillColor=#ffffc0;strokeColor=#ff0000;fontStyle=1" vertex="1" parent="1">
          <mxGeometry x="415" y="1440" width="105" height="70" as="geometry" />
        </mxCell>
        <mxCell id="8rR3oontzNPSZFbkgb1i-64" value="Пподошла" style="html=1;align=left;verticalAlign=bottom;endArrow=open;endSize=8;strokeColor=#ff0000;rounded=0;entryX=0;entryY=0.5;entryDx=0;entryDy=0;" edge="1" source="8rR3oontzNPSZFbkgb1i-63" parent="1" target="8rR3oontzNPSZFbkgb1i-68">
          <mxGeometry x="-1" relative="1" as="geometry">
            <mxPoint x="595" y="1480" as="targetPoint" />
          </mxGeometry>
        </mxCell>
        <mxCell id="8rR3oontzNPSZFbkgb1i-65" value="Неподошла" style="html=1;align=left;verticalAlign=top;endArrow=open;endSize=8;strokeColor=#ff0000;rounded=0;entryX=0.5;entryY=0;entryDx=0;entryDy=0;" edge="1" source="8rR3oontzNPSZFbkgb1i-63" parent="1" target="8rR3oontzNPSZFbkgb1i-67">
          <mxGeometry x="-1" relative="1" as="geometry">
            <mxPoint x="455" y="1560" as="targetPoint" />
          </mxGeometry>
        </mxCell>
        <mxCell id="8rR3oontzNPSZFbkgb1i-76" style="edgeStyle=orthogonalEdgeStyle;rounded=0;orthogonalLoop=1;jettySize=auto;html=1;entryX=0.46;entryY=1.04;entryDx=0;entryDy=0;entryPerimeter=0;" edge="1" parent="1" source="8rR3oontzNPSZFbkgb1i-67" target="8rR3oontzNPSZFbkgb1i-62">
          <mxGeometry relative="1" as="geometry" />
        </mxCell>
        <mxCell id="8rR3oontzNPSZFbkgb1i-67" value="Идем к другому ларьку" style="html=1;whiteSpace=wrap;fontStyle=1" vertex="1" parent="1">
          <mxGeometry x="415" y="1580" width="105" height="50" as="geometry" />
        </mxCell>
        <mxCell id="8rR3oontzNPSZFbkgb1i-72" style="edgeStyle=orthogonalEdgeStyle;rounded=0;orthogonalLoop=1;jettySize=auto;html=1;entryX=0;entryY=0.5;entryDx=0;entryDy=0;" edge="1" parent="1" source="8rR3oontzNPSZFbkgb1i-68" target="8rR3oontzNPSZFbkgb1i-71">
          <mxGeometry relative="1" as="geometry" />
        </mxCell>
        <mxCell id="8rR3oontzNPSZFbkgb1i-68" value="Купили газету" style="html=1;whiteSpace=wrap;fontStyle=1;fontSize=13;" vertex="1" parent="1">
          <mxGeometry x="610" y="1450" width="110" height="50" as="geometry" />
        </mxCell>
        <mxCell id="8rR3oontzNPSZFbkgb1i-70" style="edgeStyle=orthogonalEdgeStyle;rounded=0;orthogonalLoop=1;jettySize=auto;html=1;exitX=0;exitY=0.75;exitDx=0;exitDy=0;entryX=0;entryY=1;entryDx=0;entryDy=0;" edge="1" parent="1" source="8rR3oontzNPSZFbkgb1i-68" target="8rR3oontzNPSZFbkgb1i-68">
          <mxGeometry relative="1" as="geometry" />
        </mxCell>
        <mxCell id="8rR3oontzNPSZFbkgb1i-74" style="edgeStyle=orthogonalEdgeStyle;rounded=0;orthogonalLoop=1;jettySize=auto;html=1;entryX=0;entryY=0.5;entryDx=0;entryDy=0;" edge="1" parent="1" source="8rR3oontzNPSZFbkgb1i-71" target="8rR3oontzNPSZFbkgb1i-73">
          <mxGeometry relative="1" as="geometry" />
        </mxCell>
        <mxCell id="8rR3oontzNPSZFbkgb1i-71" value="Идем&amp;nbsp; домой" style="html=1;whiteSpace=wrap;fontStyle=1" vertex="1" parent="1">
          <mxGeometry x="760" y="1450" width="110" height="50" as="geometry" />
        </mxCell>
        <mxCell id="8rR3oontzNPSZFbkgb1i-73" value="" style="ellipse;html=1;shape=endState;fillColor=#000000;strokeColor=#ff0000;" vertex="1" parent="1">
          <mxGeometry x="960" y="1460" width="30" height="30" as="geometry" />
        </mxCell>
        <mxCell id="8rR3oontzNPSZFbkgb1i-75" value="Диаграмма состояний" style="text;html=1;align=center;verticalAlign=middle;resizable=0;points=[];autosize=1;strokeColor=none;fillColor=none;fontStyle=1;fontSize=24;" vertex="1" parent="1">
          <mxGeometry x="335" y="1740" width="290" height="40" as="geometry" />
        </mxCell>
        <mxCell id="8rR3oontzNPSZFbkgb1i-114" value="" style="edgeStyle=orthogonalEdgeStyle;rounded=0;orthogonalLoop=1;jettySize=auto;html=1;" edge="1" parent="1" source="8rR3oontzNPSZFbkgb1i-77" target="8rR3oontzNPSZFbkgb1i-87">
          <mxGeometry relative="1" as="geometry" />
        </mxCell>
        <mxCell id="8rR3oontzNPSZFbkgb1i-77" value="&lt;font style=&quot;font-size: 16px;&quot;&gt;Прохождение заказа в Интернет магазине&lt;/font&gt;" style="text;html=1;align=center;verticalAlign=middle;resizable=0;points=[];autosize=1;strokeColor=none;fillColor=none;fontStyle=1;fontSize=14;" vertex="1" parent="1">
          <mxGeometry x="300" y="1780" width="360" height="30" as="geometry" />
        </mxCell>
        <mxCell id="8rR3oontzNPSZFbkgb1i-87" value="КЛИЕНТ" style="html=1;whiteSpace=wrap;fontStyle=1" vertex="1" parent="1">
          <mxGeometry x="120" y="1830" width="690" height="210" as="geometry" />
        </mxCell>
        <mxCell id="8rR3oontzNPSZFbkgb1i-88" value="СКЛАД" style="html=1;whiteSpace=wrap;fontStyle=1" vertex="1" parent="1">
          <mxGeometry x="120" y="2040" width="690" height="240" as="geometry" />
        </mxCell>
        <mxCell id="8rR3oontzNPSZFbkgb1i-89" value="" style="ellipse;html=1;shape=endState;fillColor=#000000;strokeColor=#ff0000;" vertex="1" parent="1">
          <mxGeometry x="30" y="2022.5" width="30" height="30" as="geometry" />
        </mxCell>
        <mxCell id="8rR3oontzNPSZFbkgb1i-90" value="" style="ellipse;html=1;shape=endState;fillColor=#000000;strokeColor=#ff0000;" vertex="1" parent="1">
          <mxGeometry x="880" y="2022.5" width="30" height="30" as="geometry" />
        </mxCell>
        <mxCell id="8rR3oontzNPSZFbkgb1i-92" value="Заполнение заказа" style="rounded=1;whiteSpace=wrap;html=1;arcSize=40;fontColor=#000000;fillColor=#ffffc0;strokeColor=#ff0000;" vertex="1" parent="1">
          <mxGeometry x="145" y="1950" width="120" height="40" as="geometry" />
        </mxCell>
        <mxCell id="8rR3oontzNPSZFbkgb1i-93" value="" style="html=1;verticalAlign=bottom;endArrow=open;endSize=8;strokeColor=#ff0000;rounded=0;entryX=0;entryY=0;entryDx=0;entryDy=0;" edge="1" source="8rR3oontzNPSZFbkgb1i-92" parent="1" target="8rR3oontzNPSZFbkgb1i-88">
          <mxGeometry relative="1" as="geometry">
            <mxPoint x="205" y="2050" as="targetPoint" />
          </mxGeometry>
        </mxCell>
        <mxCell id="8rR3oontzNPSZFbkgb1i-96" value="Актуальный товар" style="rounded=1;whiteSpace=wrap;html=1;arcSize=40;fontColor=#000000;fillColor=#ffffc0;strokeColor=#ff0000;" vertex="1" parent="1">
          <mxGeometry x="145" y="2120" width="120" height="40" as="geometry" />
        </mxCell>
        <mxCell id="8rR3oontzNPSZFbkgb1i-97" value="" style="html=1;verticalAlign=bottom;endArrow=open;endSize=8;strokeColor=#ff0000;rounded=0;entryX=0.157;entryY=0.033;entryDx=0;entryDy=0;entryPerimeter=0;" edge="1" source="8rR3oontzNPSZFbkgb1i-96" parent="1">
          <mxGeometry relative="1" as="geometry">
            <mxPoint x="120.99000000000001" y="2040.9899999999998" as="targetPoint" />
          </mxGeometry>
        </mxCell>
        <mxCell id="8rR3oontzNPSZFbkgb1i-99" value="" style="edgeStyle=none;orthogonalLoop=1;jettySize=auto;html=1;rounded=0;" edge="1" parent="1">
          <mxGeometry width="100" relative="1" as="geometry">
            <mxPoint x="265" y="1969.5" as="sourcePoint" />
            <mxPoint x="365" y="1969.5" as="targetPoint" />
            <Array as="points" />
          </mxGeometry>
        </mxCell>
        <mxCell id="8rR3oontzNPSZFbkgb1i-100" value="" style="edgeStyle=none;orthogonalLoop=1;jettySize=auto;html=1;rounded=0;" edge="1" parent="1">
          <mxGeometry width="100" relative="1" as="geometry">
            <mxPoint x="265" y="2139.5" as="sourcePoint" />
            <mxPoint x="365" y="2139.5" as="targetPoint" />
            <Array as="points" />
          </mxGeometry>
        </mxCell>
        <mxCell id="8rR3oontzNPSZFbkgb1i-101" value="Блок синхронизации" style="html=1;points=[];perimeter=orthogonalPerimeter;outlineConnect=0;targetShapes=umlLifeline;portConstraint=eastwest;newEdgeStyle={&quot;edgeStyle&quot;:&quot;elbowEdgeStyle&quot;,&quot;elbow&quot;:&quot;vertical&quot;,&quot;curved&quot;:0,&quot;rounded&quot;:0};fontStyle=1;horizontal=0;" vertex="1" parent="1">
          <mxGeometry x="375" y="1840" width="30" height="140" as="geometry" />
        </mxCell>
        <mxCell id="8rR3oontzNPSZFbkgb1i-104" value="Блок синхронизации" style="html=1;points=[];perimeter=orthogonalPerimeter;outlineConnect=0;targetShapes=umlLifeline;portConstraint=eastwest;newEdgeStyle={&quot;edgeStyle&quot;:&quot;elbowEdgeStyle&quot;,&quot;elbow&quot;:&quot;vertical&quot;,&quot;curved&quot;:0,&quot;rounded&quot;:0};fontStyle=1;horizontal=0;" vertex="1" parent="1">
          <mxGeometry x="377.5" y="2110" width="30" height="140" as="geometry" />
        </mxCell>
        <mxCell id="8rR3oontzNPSZFbkgb1i-105" value="Оплата товара" style="rounded=1;whiteSpace=wrap;html=1;arcSize=40;fontColor=#000000;fillColor=#ffffc0;strokeColor=#ff0000;" vertex="1" parent="1">
          <mxGeometry x="430" y="1980" width="120" height="40" as="geometry" />
        </mxCell>
        <mxCell id="8rR3oontzNPSZFbkgb1i-106" value="" style="html=1;verticalAlign=bottom;endArrow=open;endSize=8;strokeColor=#ff0000;rounded=0;" edge="1" source="8rR3oontzNPSZFbkgb1i-105" parent="1" target="8rR3oontzNPSZFbkgb1i-101">
          <mxGeometry relative="1" as="geometry">
            <mxPoint x="490" y="2080" as="targetPoint" />
          </mxGeometry>
        </mxCell>
        <mxCell id="8rR3oontzNPSZFbkgb1i-107" value="Сбор заказа" style="rounded=1;whiteSpace=wrap;html=1;arcSize=40;fontColor=#000000;fillColor=#ffffc0;strokeColor=#ff0000;" vertex="1" parent="1">
          <mxGeometry x="430" y="2070" width="120" height="40" as="geometry" />
        </mxCell>
        <mxCell id="8rR3oontzNPSZFbkgb1i-108" value="" style="html=1;verticalAlign=bottom;endArrow=open;endSize=8;strokeColor=#ff0000;rounded=0;" edge="1" source="8rR3oontzNPSZFbkgb1i-107" parent="1" target="8rR3oontzNPSZFbkgb1i-104">
          <mxGeometry relative="1" as="geometry">
            <mxPoint x="490" y="2170" as="targetPoint" />
          </mxGeometry>
        </mxCell>
        <mxCell id="8rR3oontzNPSZFbkgb1i-109" value="Контроль" style="ellipse;shape=umlControl;whiteSpace=wrap;html=1;" vertex="1" parent="1">
          <mxGeometry x="365" y="2015" width="55" height="45" as="geometry" />
        </mxCell>
        <mxCell id="8rR3oontzNPSZFbkgb1i-111" value="" style="edgeStyle=none;orthogonalLoop=1;jettySize=auto;html=1;endArrow=classic;startArrow=classic;endSize=8;startSize=8;rounded=0;exitX=0.509;exitY=0.111;exitDx=0;exitDy=0;exitPerimeter=0;" edge="1" parent="1" source="8rR3oontzNPSZFbkgb1i-109" target="8rR3oontzNPSZFbkgb1i-101">
          <mxGeometry width="100" relative="1" as="geometry">
            <mxPoint x="330" y="1999.5" as="sourcePoint" />
            <mxPoint x="430" y="1999.5" as="targetPoint" />
            <Array as="points" />
          </mxGeometry>
        </mxCell>
        <mxCell id="8rR3oontzNPSZFbkgb1i-112" value="" style="orthogonalLoop=1;jettySize=auto;html=1;endArrow=classic;startArrow=classic;endSize=8;startSize=8;rounded=0;entryX=0.527;entryY=1.089;entryDx=0;entryDy=0;entryPerimeter=0;" edge="1" parent="1" source="8rR3oontzNPSZFbkgb1i-104" target="8rR3oontzNPSZFbkgb1i-109">
          <mxGeometry width="100" relative="1" as="geometry">
            <mxPoint x="403" y="2030" as="sourcePoint" />
            <mxPoint x="403" y="1990" as="targetPoint" />
          </mxGeometry>
        </mxCell>
        <mxCell id="8rR3oontzNPSZFbkgb1i-115" value="&lt;b&gt;Паральльные процессы связанные между собой&lt;/b&gt;" style="text;html=1;align=center;verticalAlign=middle;resizable=0;points=[];autosize=1;strokeColor=none;fillColor=none;" vertex="1" parent="1">
          <mxGeometry x="315" y="1800" width="320" height="30" as="geometry" />
        </mxCell>
        <mxCell id="8rR3oontzNPSZFbkgb1i-116" value="" style="edgeStyle=none;orthogonalLoop=1;jettySize=auto;html=1;rounded=0;" edge="1" parent="1">
          <mxGeometry width="100" relative="1" as="geometry">
            <mxPoint x="60" y="2040" as="sourcePoint" />
            <mxPoint x="120" y="2040" as="targetPoint" />
            <Array as="points" />
          </mxGeometry>
        </mxCell>
        <mxCell id="8rR3oontzNPSZFbkgb1i-117" value="" style="edgeStyle=none;orthogonalLoop=1;jettySize=auto;html=1;rounded=0;" edge="1" parent="1">
          <mxGeometry width="100" relative="1" as="geometry">
            <mxPoint x="785" y="2040" as="sourcePoint" />
            <mxPoint x="880" y="2040" as="targetPoint" />
            <Array as="points" />
          </mxGeometry>
        </mxCell>
        <mxCell id="8rR3oontzNPSZFbkgb1i-118" value="Товар есть" style="text;html=1;align=center;verticalAlign=middle;resizable=0;points=[];autosize=1;strokeColor=none;fillColor=none;" vertex="1" parent="1">
          <mxGeometry x="270" y="1940" width="80" height="30" as="geometry" />
        </mxCell>
        <mxCell id="8rR3oontzNPSZFbkgb1i-119" value="Заказ оформлен" style="text;html=1;align=center;verticalAlign=middle;resizable=0;points=[];autosize=1;strokeColor=none;fillColor=none;" vertex="1" parent="1">
          <mxGeometry x="250" y="2110" width="120" height="30" as="geometry" />
        </mxCell>
        <mxCell id="8rR3oontzNPSZFbkgb1i-121" value="Диаграмма состояний" style="text;html=1;align=center;verticalAlign=middle;resizable=0;points=[];autosize=1;strokeColor=none;fillColor=none;fontStyle=1;fontSize=24;" vertex="1" parent="1">
          <mxGeometry x="310" y="2891" width="290" height="40" as="geometry" />
        </mxCell>
        <mxCell id="8rR3oontzNPSZFbkgb1i-129" value="frame" style="shape=umlFrame;whiteSpace=wrap;html=1;pointerEvents=0;" vertex="1" parent="1">
          <mxGeometry x="110" y="2440" width="780" height="400" as="geometry" />
        </mxCell>
        <mxCell id="8rR3oontzNPSZFbkgb1i-130" value="Спортивное соревнование (Паралельные вещи в плане команды и Судейской бригады (В состоянии оценки) Представить&lt;br&gt;Паралельные проццессы&amp;nbsp;&lt;br&gt;&lt;br&gt;ПРЫЖКИ С ТРАМПЛИНА ГОРНОЛЫЖНИКА" style="text;html=1;align=center;verticalAlign=middle;resizable=0;points=[];autosize=1;strokeColor=none;fillColor=none;" vertex="1" parent="1">
          <mxGeometry x="110" y="2935" width="710" height="70" as="geometry" />
        </mxCell>
        <mxCell id="8rR3oontzNPSZFbkgb1i-131" value="Диаграмма состояний" style="text;html=1;align=center;verticalAlign=middle;resizable=0;points=[];autosize=1;strokeColor=none;fillColor=none;fontStyle=1;fontSize=24;" vertex="1" parent="1">
          <mxGeometry x="315" y="2330" width="290" height="40" as="geometry" />
        </mxCell>
        <mxCell id="8rR3oontzNPSZFbkgb1i-132" value="Диаграмма состояний ОБУВЬ" style="text;html=1;align=center;verticalAlign=middle;resizable=0;points=[];autosize=1;strokeColor=none;fillColor=none;" vertex="1" parent="1">
          <mxGeometry x="345" y="2378" width="190" height="30" as="geometry" />
        </mxCell>
        <mxCell id="8rR3oontzNPSZFbkgb1i-133" value="" style="ellipse;html=1;shape=endState;fillColor=#000000;strokeColor=#ff0000;" vertex="1" parent="1">
          <mxGeometry x="50" y="2630" width="30" height="30" as="geometry" />
        </mxCell>
        <mxCell id="8rR3oontzNPSZFbkgb1i-134" value="" style="ellipse;html=1;shape=endState;fillColor=#000000;strokeColor=#ff0000;" vertex="1" parent="1">
          <mxGeometry x="930" y="2630" width="30" height="30" as="geometry" />
        </mxCell>
        <mxCell id="8rR3oontzNPSZFbkgb1i-135" value="" style="orthogonalLoop=1;jettySize=auto;html=1;rounded=0;exitX=1;exitY=0.5;exitDx=0;exitDy=0;entryX=-0.005;entryY=0.515;entryDx=0;entryDy=0;entryPerimeter=0;" edge="1" parent="1" source="8rR3oontzNPSZFbkgb1i-133" target="8rR3oontzNPSZFbkgb1i-129">
          <mxGeometry width="100" relative="1" as="geometry">
            <mxPoint x="40" y="2700" as="sourcePoint" />
            <mxPoint x="140" y="2700" as="targetPoint" />
          </mxGeometry>
        </mxCell>
        <mxCell id="8rR3oontzNPSZFbkgb1i-142" value="" style="edgeStyle=orthogonalEdgeStyle;rounded=0;orthogonalLoop=1;jettySize=auto;html=1;" edge="1" parent="1" source="8rR3oontzNPSZFbkgb1i-136" target="8rR3oontzNPSZFbkgb1i-141">
          <mxGeometry relative="1" as="geometry" />
        </mxCell>
        <mxCell id="8rR3oontzNPSZFbkgb1i-136" value="Обувь заблестела" style="rounded=1;whiteSpace=wrap;html=1;arcSize=40;fontColor=#000000;fillColor=#ffffc0;strokeColor=#ff0000;" vertex="1" parent="1">
          <mxGeometry x="324.5" y="2625" width="120" height="40" as="geometry" />
        </mxCell>
        <mxCell id="8rR3oontzNPSZFbkgb1i-138" value="Носка обуви в&lt;br&gt;сухую погоду" style="rounded=1;whiteSpace=wrap;html=1;arcSize=40;fontColor=#000000;fillColor=#ffffc0;strokeColor=#ff0000;" vertex="1" parent="1">
          <mxGeometry x="120" y="2625" width="120" height="40" as="geometry" />
        </mxCell>
        <mxCell id="8rR3oontzNPSZFbkgb1i-139" value="" style="edgeStyle=orthogonalEdgeStyle;html=1;verticalAlign=bottom;endArrow=open;endSize=8;strokeColor=#ff0000;rounded=0;exitX=1;exitY=0.5;exitDx=0;exitDy=0;entryX=0;entryY=0.5;entryDx=0;entryDy=0;" edge="1" source="8rR3oontzNPSZFbkgb1i-138" parent="1" target="8rR3oontzNPSZFbkgb1i-136">
          <mxGeometry relative="1" as="geometry">
            <mxPoint x="180" y="2725" as="targetPoint" />
          </mxGeometry>
        </mxCell>
        <mxCell id="8rR3oontzNPSZFbkgb1i-140" value="Чистка обуви" style="text;html=1;align=center;verticalAlign=middle;resizable=0;points=[];autosize=1;strokeColor=none;fillColor=none;" vertex="1" parent="1">
          <mxGeometry x="230" y="2618" width="100" height="30" as="geometry" />
        </mxCell>
        <mxCell id="8rR3oontzNPSZFbkgb1i-144" value="" style="edgeStyle=orthogonalEdgeStyle;rounded=0;orthogonalLoop=1;jettySize=auto;html=1;" edge="1" parent="1" source="8rR3oontzNPSZFbkgb1i-141" target="8rR3oontzNPSZFbkgb1i-143">
          <mxGeometry relative="1" as="geometry" />
        </mxCell>
        <mxCell id="8rR3oontzNPSZFbkgb1i-141" value="У обуви отклеилась&amp;nbsp;&lt;br&gt;подошва" style="whiteSpace=wrap;html=1;fillColor=#ffffc0;strokeColor=#ff0000;fontColor=#000000;rounded=1;arcSize=40;" vertex="1" parent="1">
          <mxGeometry x="524.5" y="2615" width="120" height="60" as="geometry" />
        </mxCell>
        <mxCell id="8rR3oontzNPSZFbkgb1i-143" value="Ремонт обуви" style="whiteSpace=wrap;html=1;fillColor=#ffffc0;strokeColor=#ff0000;fontColor=#000000;rounded=1;arcSize=40;" vertex="1" parent="1">
          <mxGeometry x="690" y="2540" width="120" height="60" as="geometry" />
        </mxCell>
        <mxCell id="8rR3oontzNPSZFbkgb1i-145" value="Сзали в ремонт" style="text;html=1;align=center;verticalAlign=middle;resizable=0;points=[];autosize=1;strokeColor=none;fillColor=none;" vertex="1" parent="1">
          <mxGeometry x="625" y="2618" width="110" height="30" as="geometry" />
        </mxCell>
        <mxCell id="8rR3oontzNPSZFbkgb1i-146" value="Пошол дождь" style="text;html=1;align=center;verticalAlign=middle;resizable=0;points=[];autosize=1;strokeColor=none;fillColor=none;" vertex="1" parent="1">
          <mxGeometry x="440" y="2618" width="100" height="30" as="geometry" />
        </mxCell>
        <mxCell id="8rR3oontzNPSZFbkgb1i-153" style="edgeStyle=orthogonalEdgeStyle;rounded=0;orthogonalLoop=1;jettySize=auto;html=1;entryX=0;entryY=1;entryDx=0;entryDy=0;" edge="1" parent="1" source="8rR3oontzNPSZFbkgb1i-148" target="8rR3oontzNPSZFbkgb1i-134">
          <mxGeometry relative="1" as="geometry" />
        </mxCell>
        <mxCell id="8rR3oontzNPSZFbkgb1i-148" value="Подошва снова&lt;br&gt;отошла&lt;br&gt;Стала промокать" style="rounded=1;whiteSpace=wrap;html=1;arcSize=40;fontColor=#000000;fillColor=#ffffc0;strokeColor=#ff0000;" vertex="1" parent="1">
          <mxGeometry x="745" y="2720" width="120" height="65" as="geometry" />
        </mxCell>
        <mxCell id="8rR3oontzNPSZFbkgb1i-158" style="rounded=0;orthogonalLoop=1;jettySize=auto;html=1;entryX=0.5;entryY=0;entryDx=0;entryDy=0;" edge="1" parent="1" source="8rR3oontzNPSZFbkgb1i-154" target="8rR3oontzNPSZFbkgb1i-148">
          <mxGeometry relative="1" as="geometry" />
        </mxCell>
        <mxCell id="8rR3oontzNPSZFbkgb1i-154" value="Продолжили носку" style="text;html=1;align=center;verticalAlign=middle;resizable=0;points=[];autosize=1;strokeColor=none;fillColor=none;horizontal=0;" vertex="1" parent="1">
          <mxGeometry x="735" y="2630" width="130" height="30" as="geometry" />
        </mxCell>
        <mxCell id="8rR3oontzNPSZFbkgb1i-159" value="СУДЬЯ" style="shape=umlFrame;whiteSpace=wrap;html=1;pointerEvents=0;" vertex="1" parent="1">
          <mxGeometry x="120" y="3030" width="1530" height="200" as="geometry" />
        </mxCell>
        <mxCell id="8rR3oontzNPSZFbkgb1i-160" value="ГОРНОЛЫЖНИК" style="shape=umlFrame;whiteSpace=wrap;html=1;pointerEvents=0;width=110;height=30;" vertex="1" parent="1">
          <mxGeometry x="120" y="3230" width="1530" height="200" as="geometry" />
        </mxCell>
        <mxCell id="8rR3oontzNPSZFbkgb1i-163" style="rounded=0;orthogonalLoop=1;jettySize=auto;html=1;entryX=0.004;entryY=0.015;entryDx=0;entryDy=0;entryPerimeter=0;" edge="1" parent="1" source="8rR3oontzNPSZFbkgb1i-161" target="8rR3oontzNPSZFbkgb1i-160">
          <mxGeometry relative="1" as="geometry" />
        </mxCell>
        <mxCell id="8rR3oontzNPSZFbkgb1i-161" value="" style="ellipse;html=1;shape=endState;fillColor=#000000;strokeColor=#ff0000;" vertex="1" parent="1">
          <mxGeometry x="50" y="3220" width="30" height="30" as="geometry" />
        </mxCell>
        <mxCell id="8rR3oontzNPSZFbkgb1i-162" value="" style="ellipse;html=1;shape=endState;fillColor=#000000;strokeColor=#ff0000;" vertex="1" parent="1">
          <mxGeometry x="1660" y="3220" width="30" height="30" as="geometry" />
        </mxCell>
        <mxCell id="8rR3oontzNPSZFbkgb1i-179" style="rounded=0;orthogonalLoop=1;jettySize=auto;html=1;" edge="1" parent="1" source="8rR3oontzNPSZFbkgb1i-164" target="8rR3oontzNPSZFbkgb1i-176">
          <mxGeometry relative="1" as="geometry" />
        </mxCell>
        <mxCell id="8rR3oontzNPSZFbkgb1i-164" value="Разгон по прямой" style="rounded=1;whiteSpace=wrap;html=1;arcSize=40;fontColor=#000000;fillColor=#ffffc0;strokeColor=#ff0000;" vertex="1" parent="1">
          <mxGeometry x="145" y="3304" width="120" height="40" as="geometry" />
        </mxCell>
        <mxCell id="8rR3oontzNPSZFbkgb1i-180" value="" style="rounded=0;orthogonalLoop=1;jettySize=auto;html=1;" edge="1" parent="1" source="8rR3oontzNPSZFbkgb1i-166" target="8rR3oontzNPSZFbkgb1i-174">
          <mxGeometry relative="1" as="geometry" />
        </mxCell>
        <mxCell id="8rR3oontzNPSZFbkgb1i-166" value="Оценка&lt;br&gt;&amp;nbsp;выполнения разгона" style="rounded=1;whiteSpace=wrap;html=1;arcSize=40;fontColor=#000000;fillColor=#ffffc0;strokeColor=#ff0000;" vertex="1" parent="1">
          <mxGeometry x="160" y="3090" width="120" height="40" as="geometry" />
        </mxCell>
        <mxCell id="8rR3oontzNPSZFbkgb1i-168" value="" style="edgeStyle=none;orthogonalLoop=1;jettySize=auto;html=1;rounded=0;exitX=0;exitY=-0.01;exitDx=0;exitDy=0;exitPerimeter=0;entryX=0;entryY=1;entryDx=0;entryDy=0;" edge="1" parent="1" source="8rR3oontzNPSZFbkgb1i-160" target="8rR3oontzNPSZFbkgb1i-166">
          <mxGeometry width="100" relative="1" as="geometry">
            <mxPoint x="290" y="3160" as="sourcePoint" />
            <mxPoint x="390" y="3160" as="targetPoint" />
            <Array as="points" />
          </mxGeometry>
        </mxCell>
        <mxCell id="8rR3oontzNPSZFbkgb1i-169" value="" style="edgeStyle=none;orthogonalLoop=1;jettySize=auto;html=1;rounded=0;exitX=0.003;exitY=1;exitDx=0;exitDy=0;exitPerimeter=0;entryX=0;entryY=0;entryDx=0;entryDy=0;" edge="1" parent="1" source="8rR3oontzNPSZFbkgb1i-159" target="8rR3oontzNPSZFbkgb1i-164">
          <mxGeometry width="100" relative="1" as="geometry">
            <mxPoint x="130" y="3238" as="sourcePoint" />
            <mxPoint x="170" y="3140" as="targetPoint" />
            <Array as="points" />
          </mxGeometry>
        </mxCell>
        <mxCell id="8rR3oontzNPSZFbkgb1i-173" value="Начинает выполнять&lt;br&gt;упражнение" style="edgeLabel;html=1;align=center;verticalAlign=middle;resizable=0;points=[];" vertex="1" connectable="0" parent="8rR3oontzNPSZFbkgb1i-169">
          <mxGeometry x="0.3788" relative="1" as="geometry">
            <mxPoint as="offset" />
          </mxGeometry>
        </mxCell>
        <mxCell id="8rR3oontzNPSZFbkgb1i-172" value="готовится к&amp;nbsp;&lt;br&gt;первой оценке" style="text;html=1;align=center;verticalAlign=middle;resizable=0;points=[];autosize=1;strokeColor=none;fillColor=none;" vertex="1" parent="1">
          <mxGeometry x="85" y="3153" width="110" height="40" as="geometry" />
        </mxCell>
        <mxCell id="8rR3oontzNPSZFbkgb1i-174" value="Блок синхронизации" style="html=1;points=[];perimeter=orthogonalPerimeter;outlineConnect=0;targetShapes=umlLifeline;portConstraint=eastwest;newEdgeStyle={&quot;edgeStyle&quot;:&quot;elbowEdgeStyle&quot;,&quot;elbow&quot;:&quot;vertical&quot;,&quot;curved&quot;:0,&quot;rounded&quot;:0};horizontal=0;fontStyle=1" vertex="1" parent="1">
          <mxGeometry x="352.5" y="3035" width="30" height="150" as="geometry" />
        </mxCell>
        <mxCell id="8rR3oontzNPSZFbkgb1i-176" value="Блок синхронизации" style="html=1;points=[];perimeter=orthogonalPerimeter;outlineConnect=0;targetShapes=umlLifeline;portConstraint=eastwest;newEdgeStyle={&quot;edgeStyle&quot;:&quot;elbowEdgeStyle&quot;,&quot;elbow&quot;:&quot;vertical&quot;,&quot;curved&quot;:0,&quot;rounded&quot;:0};horizontal=0;fontStyle=1" vertex="1" parent="1">
          <mxGeometry x="352.5" y="3280" width="30" height="150" as="geometry" />
        </mxCell>
        <mxCell id="8rR3oontzNPSZFbkgb1i-181" value="1 Этап&amp;nbsp;&lt;br&gt;пройден" style="text;html=1;align=center;verticalAlign=middle;resizable=0;points=[];autosize=1;strokeColor=none;fillColor=none;" vertex="1" parent="1">
          <mxGeometry x="275" y="3073" width="70" height="40" as="geometry" />
        </mxCell>
        <mxCell id="8rR3oontzNPSZFbkgb1i-182" value="1 Этап&amp;nbsp;&lt;br style=&quot;border-color: var(--border-color);&quot;&gt;пройден" style="text;html=1;align=center;verticalAlign=middle;resizable=0;points=[];autosize=1;strokeColor=none;fillColor=none;" vertex="1" parent="1">
          <mxGeometry x="265" y="3283" width="70" height="40" as="geometry" />
        </mxCell>
        <mxCell id="8rR3oontzNPSZFbkgb1i-184" value="" style="edgeStyle=none;orthogonalLoop=1;jettySize=auto;html=1;rounded=0;entryX=0.636;entryY=0.978;entryDx=0;entryDy=0;entryPerimeter=0;" edge="1" parent="1" source="8rR3oontzNPSZFbkgb1i-176">
          <mxGeometry width="100" relative="1" as="geometry">
            <mxPoint x="380" y="3260" as="sourcePoint" />
            <mxPoint x="369.98" y="3249.01" as="targetPoint" />
            <Array as="points" />
          </mxGeometry>
        </mxCell>
        <mxCell id="8rR3oontzNPSZFbkgb1i-185" value="" style="orthogonalLoop=1;jettySize=auto;html=1;rounded=0;entryX=0.527;entryY=0.089;entryDx=0;entryDy=0;entryPerimeter=0;" edge="1" parent="1" source="8rR3oontzNPSZFbkgb1i-174">
          <mxGeometry width="100" relative="1" as="geometry">
            <mxPoint x="345" y="3211" as="sourcePoint" />
            <mxPoint x="363.9849999999999" y="3209.005" as="targetPoint" />
          </mxGeometry>
        </mxCell>
        <mxCell id="8rR3oontzNPSZFbkgb1i-213" style="edgeStyle=orthogonalEdgeStyle;rounded=0;orthogonalLoop=1;jettySize=auto;html=1;" edge="1" parent="1" source="8rR3oontzNPSZFbkgb1i-186" target="8rR3oontzNPSZFbkgb1i-197">
          <mxGeometry relative="1" as="geometry" />
        </mxCell>
        <mxCell id="8rR3oontzNPSZFbkgb1i-186" value="Оценка&lt;br&gt;группировки во&amp;nbsp;&lt;br&gt;время прыжка" style="rounded=1;whiteSpace=wrap;html=1;arcSize=40;fontColor=#000000;fillColor=#ffffc0;strokeColor=#ff0000;" vertex="1" parent="1">
          <mxGeometry x="444.5" y="3110" width="120" height="60" as="geometry" />
        </mxCell>
        <mxCell id="8rR3oontzNPSZFbkgb1i-214" style="edgeStyle=orthogonalEdgeStyle;rounded=0;orthogonalLoop=1;jettySize=auto;html=1;" edge="1" parent="1" source="8rR3oontzNPSZFbkgb1i-188" target="8rR3oontzNPSZFbkgb1i-198">
          <mxGeometry relative="1" as="geometry" />
        </mxCell>
        <mxCell id="8rR3oontzNPSZFbkgb1i-188" value="Выполнение прыжка&lt;br&gt;" style="rounded=1;whiteSpace=wrap;html=1;arcSize=40;fontColor=#000000;fillColor=#ffffc0;strokeColor=#ff0000;" vertex="1" parent="1">
          <mxGeometry x="444.5" y="3310" width="120" height="40" as="geometry" />
        </mxCell>
        <mxCell id="8rR3oontzNPSZFbkgb1i-190" value="" style="edgeStyle=none;orthogonalLoop=1;jettySize=auto;html=1;rounded=0;exitX=0.917;exitY=0.333;exitDx=0;exitDy=0;exitPerimeter=0;entryX=0;entryY=0.5;entryDx=0;entryDy=0;" edge="1" parent="1" source="8rR3oontzNPSZFbkgb1i-176" target="8rR3oontzNPSZFbkgb1i-188">
          <mxGeometry width="100" relative="1" as="geometry">
            <mxPoint x="390" y="3330" as="sourcePoint" />
            <mxPoint x="430" y="3330" as="targetPoint" />
            <Array as="points" />
          </mxGeometry>
        </mxCell>
        <mxCell id="8rR3oontzNPSZFbkgb1i-191" value="" style="edgeStyle=none;orthogonalLoop=1;jettySize=auto;html=1;rounded=0;exitX=0.917;exitY=0.333;exitDx=0;exitDy=0;exitPerimeter=0;entryX=0;entryY=0.5;entryDx=0;entryDy=0;" edge="1" parent="1" target="8rR3oontzNPSZFbkgb1i-186">
          <mxGeometry width="100" relative="1" as="geometry">
            <mxPoint x="380" y="3119.5" as="sourcePoint" />
            <mxPoint x="430" y="3119.5" as="targetPoint" />
            <Array as="points" />
          </mxGeometry>
        </mxCell>
        <mxCell id="8rR3oontzNPSZFbkgb1i-192" value="Сосредоточение&lt;br&gt;внимания" style="text;html=1;align=center;verticalAlign=middle;resizable=0;points=[];autosize=1;strokeColor=none;fillColor=none;" vertex="1" parent="1">
          <mxGeometry x="375" y="3073" width="120" height="40" as="geometry" />
        </mxCell>
        <mxCell id="8rR3oontzNPSZFbkgb1i-195" value="Отрыв от&lt;br&gt;земли" style="text;html=1;align=center;verticalAlign=middle;resizable=0;points=[];autosize=1;strokeColor=none;fillColor=none;" vertex="1" parent="1">
          <mxGeometry x="377.5" y="3290" width="80" height="40" as="geometry" />
        </mxCell>
        <mxCell id="8rR3oontzNPSZFbkgb1i-196" value="1 Оценка" style="ellipse;shape=umlControl;whiteSpace=wrap;html=1;" vertex="1" parent="1">
          <mxGeometry x="332.5" y="3203" width="70" height="47" as="geometry" />
        </mxCell>
        <mxCell id="8rR3oontzNPSZFbkgb1i-216" style="edgeStyle=elbowEdgeStyle;rounded=0;orthogonalLoop=1;jettySize=auto;html=1;elbow=vertical;curved=0;" edge="1" parent="1" source="8rR3oontzNPSZFbkgb1i-197" target="8rR3oontzNPSZFbkgb1i-159">
          <mxGeometry relative="1" as="geometry" />
        </mxCell>
        <mxCell id="8rR3oontzNPSZFbkgb1i-217" value="" style="edgeStyle=elbowEdgeStyle;rounded=0;orthogonalLoop=1;jettySize=auto;html=1;elbow=vertical;curved=0;" edge="1" parent="1" source="8rR3oontzNPSZFbkgb1i-197" target="8rR3oontzNPSZFbkgb1i-200">
          <mxGeometry relative="1" as="geometry" />
        </mxCell>
        <mxCell id="8rR3oontzNPSZFbkgb1i-197" value="Блок синхронизации" style="html=1;points=[];perimeter=orthogonalPerimeter;outlineConnect=0;targetShapes=umlLifeline;portConstraint=eastwest;newEdgeStyle={&quot;edgeStyle&quot;:&quot;elbowEdgeStyle&quot;,&quot;elbow&quot;:&quot;vertical&quot;,&quot;curved&quot;:0,&quot;rounded&quot;:0};horizontal=0;fontStyle=1" vertex="1" parent="1">
          <mxGeometry x="635" y="3030" width="30" height="150" as="geometry" />
        </mxCell>
        <mxCell id="8rR3oontzNPSZFbkgb1i-218" value="" style="edgeStyle=elbowEdgeStyle;rounded=0;orthogonalLoop=1;jettySize=auto;html=1;elbow=vertical;curved=0;" edge="1" parent="1" source="8rR3oontzNPSZFbkgb1i-198" target="8rR3oontzNPSZFbkgb1i-202">
          <mxGeometry relative="1" as="geometry" />
        </mxCell>
        <mxCell id="8rR3oontzNPSZFbkgb1i-198" value="Блок синхронизации" style="html=1;points=[];perimeter=orthogonalPerimeter;outlineConnect=0;targetShapes=umlLifeline;portConstraint=eastwest;newEdgeStyle={&quot;edgeStyle&quot;:&quot;elbowEdgeStyle&quot;,&quot;elbow&quot;:&quot;vertical&quot;,&quot;curved&quot;:0,&quot;rounded&quot;:0};horizontal=0;fontStyle=1" vertex="1" parent="1">
          <mxGeometry x="635" y="3280" width="30" height="150" as="geometry" />
        </mxCell>
        <mxCell id="8rR3oontzNPSZFbkgb1i-199" value="2 Оценка" style="ellipse;shape=umlControl;whiteSpace=wrap;html=1;" vertex="1" parent="1">
          <mxGeometry x="615" y="3203" width="70" height="47" as="geometry" />
        </mxCell>
        <mxCell id="8rR3oontzNPSZFbkgb1i-220" value="" style="edgeStyle=orthogonalEdgeStyle;rounded=0;orthogonalLoop=1;jettySize=auto;html=1;" edge="1" parent="1" source="8rR3oontzNPSZFbkgb1i-200" target="8rR3oontzNPSZFbkgb1i-205">
          <mxGeometry relative="1" as="geometry" />
        </mxCell>
        <mxCell id="8rR3oontzNPSZFbkgb1i-200" value="Оценка&lt;br&gt;Дальности прыжка" style="rounded=1;whiteSpace=wrap;html=1;arcSize=40;fontColor=#000000;fillColor=#ffffc0;strokeColor=#ff0000;" vertex="1" parent="1">
          <mxGeometry x="720" y="3090" width="120" height="40" as="geometry" />
        </mxCell>
        <mxCell id="8rR3oontzNPSZFbkgb1i-221" value="" style="edgeStyle=orthogonalEdgeStyle;rounded=0;orthogonalLoop=1;jettySize=auto;html=1;" edge="1" parent="1" source="8rR3oontzNPSZFbkgb1i-202" target="8rR3oontzNPSZFbkgb1i-206">
          <mxGeometry relative="1" as="geometry" />
        </mxCell>
        <mxCell id="8rR3oontzNPSZFbkgb1i-202" value="Момент касания&lt;br&gt;земли" style="rounded=1;whiteSpace=wrap;html=1;arcSize=40;fontColor=#000000;fillColor=#ffffc0;strokeColor=#ff0000;" vertex="1" parent="1">
          <mxGeometry x="730" y="3335" width="120" height="40" as="geometry" />
        </mxCell>
        <mxCell id="8rR3oontzNPSZFbkgb1i-230" style="edgeStyle=elbowEdgeStyle;rounded=0;orthogonalLoop=1;jettySize=auto;html=1;elbow=vertical;curved=0;" edge="1" parent="1" source="8rR3oontzNPSZFbkgb1i-205">
          <mxGeometry relative="1" as="geometry">
            <mxPoint x="1050" y="3130" as="targetPoint" />
          </mxGeometry>
        </mxCell>
        <mxCell id="8rR3oontzNPSZFbkgb1i-205" value="Блок синхронизации" style="html=1;points=[];perimeter=orthogonalPerimeter;outlineConnect=0;targetShapes=umlLifeline;portConstraint=eastwest;newEdgeStyle={&quot;edgeStyle&quot;:&quot;elbowEdgeStyle&quot;,&quot;elbow&quot;:&quot;vertical&quot;,&quot;curved&quot;:0,&quot;rounded&quot;:0};horizontal=0;fontStyle=1" vertex="1" parent="1">
          <mxGeometry x="940" y="3030" width="30" height="150" as="geometry" />
        </mxCell>
        <mxCell id="8rR3oontzNPSZFbkgb1i-229" style="edgeStyle=elbowEdgeStyle;rounded=0;orthogonalLoop=1;jettySize=auto;html=1;elbow=vertical;curved=0;entryX=0;entryY=0.5;entryDx=0;entryDy=0;" edge="1" parent="1" source="8rR3oontzNPSZFbkgb1i-206" target="8rR3oontzNPSZFbkgb1i-237">
          <mxGeometry relative="1" as="geometry">
            <mxPoint x="1080" y="3330" as="targetPoint" />
          </mxGeometry>
        </mxCell>
        <mxCell id="8rR3oontzNPSZFbkgb1i-206" value="Блок синхронизации" style="html=1;points=[];perimeter=orthogonalPerimeter;outlineConnect=0;targetShapes=umlLifeline;portConstraint=eastwest;newEdgeStyle={&quot;edgeStyle&quot;:&quot;elbowEdgeStyle&quot;,&quot;elbow&quot;:&quot;vertical&quot;,&quot;curved&quot;:0,&quot;rounded&quot;:0};horizontal=0;fontStyle=1" vertex="1" parent="1">
          <mxGeometry x="940" y="3283" width="30" height="150" as="geometry" />
        </mxCell>
        <mxCell id="8rR3oontzNPSZFbkgb1i-207" value="3 Оценка" style="ellipse;shape=umlControl;whiteSpace=wrap;html=1;" vertex="1" parent="1">
          <mxGeometry x="900" y="3211.5" width="70" height="47" as="geometry" />
        </mxCell>
        <mxCell id="8rR3oontzNPSZFbkgb1i-208" value="" style="orthogonalLoop=1;jettySize=auto;html=1;rounded=0;entryX=0.527;entryY=0.089;entryDx=0;entryDy=0;entryPerimeter=0;" edge="1" parent="1">
          <mxGeometry width="100" relative="1" as="geometry">
            <mxPoint x="649.52" y="3185" as="sourcePoint" />
            <mxPoint x="649.5049999999999" y="3209.005" as="targetPoint" />
          </mxGeometry>
        </mxCell>
        <mxCell id="8rR3oontzNPSZFbkgb1i-209" value="" style="orthogonalLoop=1;jettySize=auto;html=1;rounded=0;entryX=0.771;entryY=0.202;entryDx=0;entryDy=0;entryPerimeter=0;" edge="1" parent="1" target="8rR3oontzNPSZFbkgb1i-207">
          <mxGeometry width="100" relative="1" as="geometry">
            <mxPoint x="954.52" y="3180" as="sourcePoint" />
            <mxPoint x="954.5049999999999" y="3204.005" as="targetPoint" />
          </mxGeometry>
        </mxCell>
        <mxCell id="8rR3oontzNPSZFbkgb1i-210" value="" style="edgeStyle=none;orthogonalLoop=1;jettySize=auto;html=1;rounded=0;entryX=0.636;entryY=0.978;entryDx=0;entryDy=0;entryPerimeter=0;" edge="1" parent="1">
          <mxGeometry width="100" relative="1" as="geometry">
            <mxPoint x="649.52" y="3283" as="sourcePoint" />
            <mxPoint x="649.5" y="3252.01" as="targetPoint" />
            <Array as="points" />
          </mxGeometry>
        </mxCell>
        <mxCell id="8rR3oontzNPSZFbkgb1i-211" value="" style="edgeStyle=none;orthogonalLoop=1;jettySize=auto;html=1;rounded=0;entryX=0.636;entryY=0.978;entryDx=0;entryDy=0;entryPerimeter=0;" edge="1" parent="1">
          <mxGeometry width="100" relative="1" as="geometry">
            <mxPoint x="944.52" y="3283" as="sourcePoint" />
            <mxPoint x="944.5" y="3252.01" as="targetPoint" />
            <Array as="points" />
          </mxGeometry>
        </mxCell>
        <mxCell id="8rR3oontzNPSZFbkgb1i-212" value="Сосредоточение&lt;br&gt;внимания" style="text;html=1;align=center;verticalAlign=middle;resizable=0;points=[];autosize=1;strokeColor=none;fillColor=none;" vertex="1" parent="1">
          <mxGeometry x="535" y="3073" width="120" height="40" as="geometry" />
        </mxCell>
        <mxCell id="8rR3oontzNPSZFbkgb1i-215" value="Полет перед&lt;br&gt;касанием" style="text;html=1;align=center;verticalAlign=middle;resizable=0;points=[];autosize=1;strokeColor=none;fillColor=none;" vertex="1" parent="1">
          <mxGeometry x="554.5" y="3290" width="90" height="40" as="geometry" />
        </mxCell>
        <mxCell id="8rR3oontzNPSZFbkgb1i-222" value="Приближение&lt;br&gt;к земле" style="text;html=1;align=center;verticalAlign=middle;resizable=0;points=[];autosize=1;strokeColor=none;fillColor=none;" vertex="1" parent="1">
          <mxGeometry x="655" y="3304" width="100" height="40" as="geometry" />
        </mxCell>
        <mxCell id="8rR3oontzNPSZFbkgb1i-223" value="Фиксация&lt;br&gt;дальности" style="text;html=1;align=center;verticalAlign=middle;resizable=0;points=[];autosize=1;strokeColor=none;fillColor=none;" vertex="1" parent="1">
          <mxGeometry x="845" y="3053" width="80" height="40" as="geometry" />
        </mxCell>
        <mxCell id="8rR3oontzNPSZFbkgb1i-224" value="Удержание&lt;br&gt;" style="text;html=1;align=center;verticalAlign=middle;resizable=0;points=[];autosize=1;strokeColor=none;fillColor=none;" vertex="1" parent="1">
          <mxGeometry x="835" y="3318" width="90" height="30" as="geometry" />
        </mxCell>
        <mxCell id="8rR3oontzNPSZFbkgb1i-225" value="Выставление&amp;nbsp;&lt;br&gt;Итогов&lt;br&gt;" style="rounded=1;whiteSpace=wrap;html=1;arcSize=40;fontColor=#000000;fillColor=#ffffc0;strokeColor=#ff0000;" vertex="1" parent="1">
          <mxGeometry x="1200" y="3090" width="90" height="80" as="geometry" />
        </mxCell>
        <mxCell id="8rR3oontzNPSZFbkgb1i-226" value="" style="edgeStyle=orthogonalEdgeStyle;html=1;verticalAlign=bottom;endArrow=open;endSize=8;strokeColor=#0d0d0d;rounded=0;entryX=-0.05;entryY=0.55;entryDx=0;entryDy=0;entryPerimeter=0;" edge="1" source="8rR3oontzNPSZFbkgb1i-241" parent="1" target="8rR3oontzNPSZFbkgb1i-256">
          <mxGeometry relative="1" as="geometry">
            <mxPoint x="1330" y="3240" as="targetPoint" />
          </mxGeometry>
        </mxCell>
        <mxCell id="8rR3oontzNPSZFbkgb1i-227" value="Наблюдение&amp;nbsp;&lt;br&gt;за результатом" style="rounded=1;whiteSpace=wrap;html=1;arcSize=40;fontColor=#000000;fillColor=#ffffc0;strokeColor=#ff0000;" vertex="1" parent="1">
          <mxGeometry x="1210" y="3304" width="100" height="40" as="geometry" />
        </mxCell>
        <mxCell id="8rR3oontzNPSZFbkgb1i-228" value="" style="edgeStyle=orthogonalEdgeStyle;html=1;verticalAlign=bottom;endArrow=open;endSize=8;strokeColor=#ff0000;rounded=0;" edge="1" source="8rR3oontzNPSZFbkgb1i-227" parent="1" target="8rR3oontzNPSZFbkgb1i-243">
          <mxGeometry relative="1" as="geometry">
            <mxPoint x="1050" y="3418" as="targetPoint" />
          </mxGeometry>
        </mxCell>
        <mxCell id="8rR3oontzNPSZFbkgb1i-233" value="движение&amp;nbsp;&lt;br&gt;по&amp;nbsp;&lt;br&gt;прямой" style="text;html=1;align=center;verticalAlign=middle;resizable=0;points=[];autosize=1;strokeColor=none;fillColor=none;" vertex="1" parent="1">
          <mxGeometry x="970" y="3330" width="80" height="60" as="geometry" />
        </mxCell>
        <mxCell id="8rR3oontzNPSZFbkgb1i-236" value="" style="edgeStyle=orthogonalEdgeStyle;rounded=0;orthogonalLoop=1;jettySize=auto;html=1;" edge="1" parent="1" source="8rR3oontzNPSZFbkgb1i-234" target="8rR3oontzNPSZFbkgb1i-225">
          <mxGeometry relative="1" as="geometry" />
        </mxCell>
        <mxCell id="8rR3oontzNPSZFbkgb1i-234" value="сравнительный&amp;nbsp;&lt;br style=&quot;border-color: var(--border-color);&quot;&gt;&lt;span style=&quot;&quot;&gt;Анализ&lt;/span&gt;" style="whiteSpace=wrap;html=1;fillColor=#ffffc0;strokeColor=#ff0000;fontColor=#000000;rounded=1;arcSize=40;" vertex="1" parent="1">
          <mxGeometry x="1049" y="3100" width="120" height="60" as="geometry" />
        </mxCell>
        <mxCell id="8rR3oontzNPSZFbkgb1i-239" style="edgeStyle=orthogonalEdgeStyle;rounded=0;orthogonalLoop=1;jettySize=auto;html=1;entryX=0;entryY=0.5;entryDx=0;entryDy=0;" edge="1" parent="1" source="8rR3oontzNPSZFbkgb1i-237" target="8rR3oontzNPSZFbkgb1i-227">
          <mxGeometry relative="1" as="geometry" />
        </mxCell>
        <mxCell id="8rR3oontzNPSZFbkgb1i-237" value="Отдышаться во&amp;nbsp;&lt;br&gt;время остановки&lt;br&gt;движения" style="whiteSpace=wrap;html=1;fillColor=#ffffc0;strokeColor=#ff0000;fontColor=#000000;rounded=1;arcSize=40;" vertex="1" parent="1">
          <mxGeometry x="1060" y="3294" width="120" height="60" as="geometry" />
        </mxCell>
        <mxCell id="8rR3oontzNPSZFbkgb1i-240" value="переход&lt;br&gt;к&lt;br&gt;результату&lt;br&gt;всех&lt;br&gt;Учавсвующих" style="text;html=1;align=center;verticalAlign=middle;resizable=0;points=[];autosize=1;strokeColor=none;fillColor=none;" vertex="1" parent="1">
          <mxGeometry x="960" y="3040" width="100" height="90" as="geometry" />
        </mxCell>
        <mxCell id="8rR3oontzNPSZFbkgb1i-242" value="" style="edgeStyle=orthogonalEdgeStyle;html=1;verticalAlign=bottom;endArrow=open;endSize=8;strokeColor=#ff0000;rounded=0;entryX=0.5;entryY=0;entryDx=0;entryDy=0;" edge="1" parent="1" source="8rR3oontzNPSZFbkgb1i-225" target="8rR3oontzNPSZFbkgb1i-241">
          <mxGeometry relative="1" as="geometry">
            <mxPoint x="1505" y="3220" as="targetPoint" />
            <mxPoint x="1290" y="3130" as="sourcePoint" />
          </mxGeometry>
        </mxCell>
        <mxCell id="8rR3oontzNPSZFbkgb1i-241" value="Блок синхронизации" style="html=1;points=[];perimeter=orthogonalPerimeter;outlineConnect=0;targetShapes=umlLifeline;portConstraint=eastwest;newEdgeStyle={&quot;edgeStyle&quot;:&quot;elbowEdgeStyle&quot;,&quot;elbow&quot;:&quot;vertical&quot;,&quot;curved&quot;:0,&quot;rounded&quot;:0};horizontal=0;fontStyle=1" vertex="1" parent="1">
          <mxGeometry x="1350" y="3035" width="30" height="150" as="geometry" />
        </mxCell>
        <mxCell id="8rR3oontzNPSZFbkgb1i-248" style="edgeStyle=elbowEdgeStyle;rounded=0;orthogonalLoop=1;jettySize=auto;html=1;elbow=vertical;curved=0;entryX=0.5;entryY=1;entryDx=0;entryDy=0;" edge="1" parent="1" source="8rR3oontzNPSZFbkgb1i-251" target="8rR3oontzNPSZFbkgb1i-162">
          <mxGeometry relative="1" as="geometry">
            <mxPoint x="1510" y="3260" as="targetPoint" />
            <Array as="points">
              <mxPoint x="1630" y="3280" />
            </Array>
          </mxGeometry>
        </mxCell>
        <mxCell id="8rR3oontzNPSZFbkgb1i-243" value="Блок синхронизации" style="html=1;points=[];perimeter=orthogonalPerimeter;outlineConnect=0;targetShapes=umlLifeline;portConstraint=eastwest;newEdgeStyle={&quot;edgeStyle&quot;:&quot;elbowEdgeStyle&quot;,&quot;elbow&quot;:&quot;vertical&quot;,&quot;curved&quot;:0,&quot;rounded&quot;:0};horizontal=0;fontStyle=1" vertex="1" parent="1">
          <mxGeometry x="1350" y="3270" width="30" height="150" as="geometry" />
        </mxCell>
        <mxCell id="8rR3oontzNPSZFbkgb1i-244" value="Итоговая Оценка" style="ellipse;shape=umlControl;whiteSpace=wrap;html=1;" vertex="1" parent="1">
          <mxGeometry x="1330" y="3203" width="70" height="47" as="geometry" />
        </mxCell>
        <mxCell id="8rR3oontzNPSZFbkgb1i-246" value="" style="edgeStyle=none;orthogonalLoop=1;jettySize=auto;html=1;rounded=0;entryX=0.636;entryY=0.978;entryDx=0;entryDy=0;entryPerimeter=0;" edge="1" parent="1" source="8rR3oontzNPSZFbkgb1i-243">
          <mxGeometry width="100" relative="1" as="geometry">
            <mxPoint x="1370" y="3280" as="sourcePoint" />
            <mxPoint x="1370" y="3249.01" as="targetPoint" />
            <Array as="points" />
          </mxGeometry>
        </mxCell>
        <mxCell id="8rR3oontzNPSZFbkgb1i-247" value="" style="orthogonalLoop=1;jettySize=auto;html=1;rounded=0;entryX=0.771;entryY=0.202;entryDx=0;entryDy=0;entryPerimeter=0;" edge="1" parent="1">
          <mxGeometry width="100" relative="1" as="geometry">
            <mxPoint x="1350.52" y="3179" as="sourcePoint" />
            <mxPoint x="1350" y="3220" as="targetPoint" />
          </mxGeometry>
        </mxCell>
        <mxCell id="8rR3oontzNPSZFbkgb1i-249" value="Activity" style="rounded=1;whiteSpace=wrap;html=1;arcSize=40;fontColor=#000000;fillColor=#ffffc0;strokeColor=#ff0000;" vertex="1" parent="1">
          <mxGeometry x="810" y="3150" width="120" height="40" as="geometry" />
        </mxCell>
        <mxCell id="8rR3oontzNPSZFbkgb1i-250" value="" style="edgeStyle=orthogonalEdgeStyle;html=1;verticalAlign=bottom;endArrow=open;endSize=8;strokeColor=#ff0000;rounded=0;" edge="1" source="8rR3oontzNPSZFbkgb1i-249" parent="1">
          <mxGeometry relative="1" as="geometry">
            <mxPoint x="870" y="3250" as="targetPoint" />
          </mxGeometry>
        </mxCell>
        <mxCell id="8rR3oontzNPSZFbkgb1i-253" value="" style="edgeStyle=elbowEdgeStyle;rounded=0;orthogonalLoop=1;jettySize=auto;html=1;elbow=vertical;curved=0;entryX=0;entryY=0.5;entryDx=0;entryDy=0;" edge="1" parent="1" source="8rR3oontzNPSZFbkgb1i-243" target="8rR3oontzNPSZFbkgb1i-251">
          <mxGeometry relative="1" as="geometry">
            <mxPoint x="1745" y="3250" as="targetPoint" />
            <mxPoint x="1380" y="3345" as="sourcePoint" />
            <Array as="points" />
          </mxGeometry>
        </mxCell>
        <mxCell id="8rR3oontzNPSZFbkgb1i-251" value="Чувсва&amp;nbsp;&lt;br&gt;Эмоции&lt;br&gt;участника" style="rounded=1;whiteSpace=wrap;html=1;arcSize=40;fontColor=#000000;fillColor=#ffffc0;strokeColor=#ff0000;" vertex="1" parent="1">
          <mxGeometry x="1530" y="3323" width="130" height="67.5" as="geometry" />
        </mxCell>
        <mxCell id="8rR3oontzNPSZFbkgb1i-254" value="Слушает&lt;br&gt;объявление&lt;br&gt;оценки" style="text;html=1;align=center;verticalAlign=middle;resizable=0;points=[];autosize=1;strokeColor=none;fillColor=none;" vertex="1" parent="1">
          <mxGeometry x="1395" y="3303" width="90" height="60" as="geometry" />
        </mxCell>
        <mxCell id="8rR3oontzNPSZFbkgb1i-255" value="Судъя&lt;br&gt;видит&amp;nbsp;&lt;br&gt;Итог" style="text;html=1;align=center;verticalAlign=middle;resizable=0;points=[];autosize=1;strokeColor=none;fillColor=none;" vertex="1" parent="1">
          <mxGeometry x="1395" y="3053" width="60" height="60" as="geometry" />
        </mxCell>
        <mxCell id="8rR3oontzNPSZFbkgb1i-256" value="Объявление&lt;br&gt;Итога&lt;br&gt;прыжка" style="rounded=1;whiteSpace=wrap;html=1;arcSize=40;fontColor=#000000;fillColor=#ffffc0;strokeColor=#ff0000;" vertex="1" parent="1">
          <mxGeometry x="1510" y="3080" width="120" height="40" as="geometry" />
        </mxCell>
        <mxCell id="8rR3oontzNPSZFbkgb1i-257" value="" style="edgeStyle=orthogonalEdgeStyle;html=1;verticalAlign=bottom;endArrow=open;endSize=8;strokeColor=#ff0000;rounded=0;entryX=0.5;entryY=0;entryDx=0;entryDy=0;" edge="1" source="8rR3oontzNPSZFbkgb1i-256" parent="1" target="8rR3oontzNPSZFbkgb1i-162">
          <mxGeometry relative="1" as="geometry">
            <mxPoint x="1750" y="3220" as="targetPoint" />
          </mxGeometry>
        </mxCell>
      </root>
    </mxGraphModel>
  </diagram>
</mxfile>
